<svg width="300" height="302" viewBox="0 0 300 302" fill="none" xmlns="http://www.w3.org/2000/svg">
<path fill-rule="evenodd" clip-rule="evenodd" d="M256.303 43.8099C228.093 15.5746 190.588 0.0125602 150.634 0C68.3023 0 1.2937 66.996 1.25602 149.366C1.24346 175.692 8.12644 201.39 21.2016 224.049L0 301.444L79.1794 280.67C100.996 292.577 125.564 298.844 150.559 298.857H150.622C232.941 298.857 299.962 231.848 300 149.479C300.025 109.575 284.501 72.0327 256.303 43.8099ZM150.634 273.624H150.584C128.302 273.624 106.46 267.632 87.3938 256.316L82.8595 253.628L35.8719 265.949L48.4195 220.13L45.4679 215.432C33.0333 195.663 26.4769 172.816 26.4894 149.366C26.5145 80.9127 82.219 25.2208 150.697 25.2208C183.856 25.2208 215.03 38.1578 238.468 61.6203C261.905 85.0952 274.804 116.282 274.792 149.454C274.754 217.932 219.062 273.624 150.634 273.624ZM218.736 180.641C215.005 178.769 196.655 169.738 193.226 168.495C189.809 167.251 187.323 166.623 184.823 170.354C182.324 174.084 175.189 182.499 173.004 184.999C170.831 187.486 168.646 187.8 164.915 185.928C161.185 184.057 149.152 180.126 134.896 167.402C123.806 157.505 116.307 145.284 114.134 141.541C111.961 137.798 113.908 135.788 115.767 133.929C117.45 132.259 119.498 129.571 121.369 127.385C123.253 125.225 123.869 123.668 125.125 121.168C126.368 118.681 125.753 116.496 124.811 114.624C123.869 112.765 116.408 94.3898 113.305 86.9165C110.278 79.6316 107.201 80.6238 104.903 80.5108C102.73 80.3977 100.243 80.3852 97.7433 80.3852C95.2564 80.3852 91.2121 81.3146 87.7957 85.0576C84.3793 88.8005 74.7331 97.8313 74.7331 116.194C74.7331 134.57 88.1097 152.317 89.9686 154.804C91.8275 157.291 116.282 194.997 153.724 211.162C162.629 215.005 169.588 217.304 175.001 219.024C183.944 221.863 192.083 221.461 198.514 220.507C205.686 219.439 220.595 211.476 223.709 202.759C226.824 194.042 226.824 186.556 225.882 185.011C224.953 183.441 222.466 182.512 218.736 180.641Z" fill="#F08080"/>
</svg>
