<svg width="300" height="301" viewBox="0 0 300 301" fill="none" xmlns="http://www.w3.org/2000/svg">
<path d="M277.129 22.7151L264.006 11.3419C248.883 -3.78064 224.387 -3.78064 209.265 11.3419C208.89 11.7169 185.768 41.837 185.768 41.837C171.521 56.8346 171.521 80.4558 185.768 95.3285L200.266 113.576C182.019 154.944 153.648 183.439 113.655 200.437L95.4078 185.814C80.5352 171.441 56.789 171.441 41.9164 185.814C41.9164 185.814 11.7962 208.935 11.4213 209.31C-3.7013 224.433 -3.70129 248.929 10.7964 263.426L23.2944 277.799C37.6671 292.172 57.039 300.046 78.0356 300.046C173.52 300.046 300 173.441 300 78.0812C300 57.2096 292.126 37.7127 277.129 22.8401V22.7151ZM78.0356 274.925C63.7879 274.925 50.665 269.675 41.6664 260.552L29.1684 246.179C24.0443 241.055 23.7943 232.681 28.6685 227.307C28.6685 227.307 58.5387 204.311 58.9137 203.936C64.0378 198.812 73.0364 198.812 78.2856 203.936C78.6605 204.311 103.781 224.433 103.781 224.433C107.281 227.182 111.905 227.932 116.029 226.307C167.771 206.561 204.89 169.567 226.262 116.2C227.887 112.076 227.262 107.327 224.387 103.702C224.387 103.702 204.265 78.4562 204.015 78.2062C198.641 72.8321 198.641 64.2085 204.015 58.8343C204.39 58.4594 227.387 28.5892 227.387 28.5892C232.761 23.7149 241.134 23.8399 246.884 29.589L260.006 40.9622C269.63 50.5856 275.004 63.7085 275.004 77.9562C275.004 164.942 152.899 274.925 78.0356 274.925Z" fill="#F08080"/>
</svg>
