<svg width="300" height="300" viewBox="0 0 300 300" fill="none" xmlns="http://www.w3.org/2000/svg">
<path d="M150 0C67.2875 0 0 67.2875 0 150C0 232.713 67.2875 300 150 300H300V150C300 67.2875 232.713 0 150 0ZM275 275H150C81.075 275 25 218.925 25 150C25 81.075 81.075 25 150 25C218.925 25 275 81.075 275 150V275ZM168.75 150C168.75 160.35 160.35 168.75 150 168.75C139.65 168.75 131.25 160.35 131.25 150C131.25 139.65 139.65 131.25 150 131.25C160.35 131.25 168.75 139.65 168.75 150ZM231.25 150C231.25 160.35 222.85 168.75 212.5 168.75C202.15 168.75 193.75 160.35 193.75 150C193.75 139.65 202.15 131.25 212.5 131.25C222.85 131.25 231.25 139.65 231.25 150ZM106.25 150C106.25 160.35 97.85 168.75 87.5 168.75C77.15 168.75 68.75 160.35 68.75 150C68.75 139.65 77.15 131.25 87.5 131.25C97.85 131.25 106.25 139.65 106.25 150Z" fill="#F08080"/>
</svg>
