<svg width="25" height="26" viewBox="0 0 25 26" fill="none" xmlns="http://www.w3.org/2000/svg">
<path d="M7.05519 0.143039C3.50401 0.495638 1.33804 2.05715 0.481723 4.95351C-0.173105 7.04392 -0.14792 18.0249 0.481723 20.1657C1.11137 22.2057 2.79881 23.8932 4.83885 24.5228C7.03 25.1776 17.9606 25.1776 20.1518 24.5228C22.1918 23.8932 23.8792 22.2057 24.5089 20.1657C25.1637 17.9745 25.1637 7.04392 24.5089 4.85276C23.9044 2.86309 22.1918 1.12528 20.2777 0.54601C18.691 0.0926672 10.3797 -0.184375 7.05519 0.143039ZM20.0762 3.21569C20.8066 3.61867 21.3859 4.22312 21.814 4.95351C22.4437 6.08686 22.4437 6.11205 22.4437 12.5092C22.4437 18.9064 22.4437 18.9316 21.814 20.0649C21.3859 20.7953 20.7814 21.3998 20.051 21.8279C18.9177 22.4576 18.8925 22.4576 12.4953 22.4576C6.09813 22.4576 6.07295 22.4576 4.93959 21.8279C4.20921 21.3998 3.60475 20.7953 3.17659 20.0649C2.54695 18.9316 2.54695 18.9064 2.54695 12.5092C2.54695 6.13723 2.54695 6.08686 3.17659 4.97869C3.95735 3.59348 5.14108 2.86309 6.95445 2.63642C7.71002 2.56087 10.7323 2.51049 13.6538 2.53568C18.7414 2.61124 19.0184 2.63642 20.0762 3.21569Z" fill="#F5F5F5"/>
<path d="M17.9606 4.90313C17.4065 5.50759 17.4317 6.5402 17.9858 7.04392C18.9932 7.9506 20.5547 7.27059 20.5547 5.91056C20.5547 4.62609 18.8169 3.94607 17.9606 4.90313Z" fill="#F5F5F5"/>
<path d="M10.6567 6.56539C8.9693 7.19503 7.86113 8.10172 7.08037 9.51212C5.46849 12.4337 6.40036 16.01 9.19597 17.7227C11.5131 19.1079 13.4775 19.1079 15.7946 17.7227C16.7265 17.1434 17.3058 16.5389 17.8347 15.6322C19.094 13.3403 19.0436 11.2499 17.5828 8.98322C16.248 6.86762 12.9235 5.70908 10.6567 6.56539ZM14.1576 9.26026C15.2909 9.78916 16.2732 11.3003 16.2732 12.5092C16.2732 13.7181 15.2909 15.2293 14.1576 15.7582C13.5783 16.0604 12.8227 16.2871 12.4953 16.2871C11.2864 16.2871 9.77524 15.3048 9.24634 14.1715C8.59152 12.8366 8.59152 12.1818 9.24634 10.847C9.59894 10.0914 10.0523 9.63805 10.8079 9.26026C12.1427 8.60543 12.8227 8.60543 14.1576 9.26026Z" fill="#F5F5F5"/>
</svg>
