<svg width="23" height="23" viewBox="0 0 23 23" fill="none" xmlns="http://www.w3.org/2000/svg">
<path d="M0 0.0341797C0 0.0585938 2.00195 2.91992 4.44336 6.39648C6.88965 9.87305 8.87695 12.7441 8.8623 12.7783C8.85254 12.8125 6.85547 15.0977 4.43359 17.8516C2.00684 20.6104 0.0146484 22.8857 0.00976562 22.9053C0 22.9297 0.439453 22.9492 0.986328 22.9492H1.97754L5.88379 18.5059C8.02734 16.0596 9.79492 14.0625 9.81445 14.0625C9.8291 14.0625 11.2402 16.0645 12.9541 18.5059L16.0693 22.9492H19.4629C21.3281 22.9492 22.8516 22.9346 22.8516 22.9102C22.8516 22.8906 20.7715 19.9219 18.2373 16.3086C15.6982 12.6953 13.6279 9.72656 13.6377 9.70703C13.6426 9.69238 15.5273 7.53906 17.8223 4.93164C20.1172 2.32422 22.0264 0.146484 22.0654 0.0927734C22.1289 0 22.1094 0 21.1328 0H20.1318L17.5244 2.96387C16.0889 4.59473 14.4189 6.49414 13.8135 7.1875L12.7051 8.4375L9.74121 4.21875L6.78223 0H3.38867C1.52344 0 0 0.0146484 0 0.0341797ZM12.9395 11.4648C16.8457 16.9336 20.0488 21.4355 20.0586 21.4697C20.0732 21.5186 19.7607 21.5332 18.5645 21.5332C17.0654 21.5332 17.0557 21.5332 16.958 21.4209C16.9043 21.3623 13.7012 16.8848 9.83887 11.4746C5.97656 6.06445 2.79785 1.60645 2.76855 1.57227C2.73438 1.52832 3.04199 1.51367 4.27734 1.51367L5.83496 1.51855L12.9395 11.4648Z" fill="#F5F5F5"/>
</svg>
